#!OML:ASF F:\VICON\USERDATA\INSTALL\rory3\rory3.ASF
:FULLY-SPECIFIED
:DEGREES
1558
root -5.04126 17.1534 -4.86606 9.15896 6.8539 2.91173
lowerback 10.716 -0.327466 -6.54988
upperback 1.02953 -1.11547 1.7666
thorax -4.77542 -0.403428 5.72928
lowerneck -22.4862 -7.47027 -11.3533
upperneck 16.0149 -9.00541 11.1451
head 9.82406 -3.67631 4.38417
rclavicle -1.71949e-014 5.56597e-015
rhumerus -13.2833 -4.98327 -77.5292
rradius 119.287
rwrist -19.9195
rhand -11.6014 26.1209
rfingers 7.12502
rthumb 14.441 -3.35665
lclavicle -1.71949e-014 5.56597e-015
lhumerus -3.73852 -11.6248 86.3002
lradius 126.777
lwrist -5.61466
lhand -12.1154 3.87741
lfingers 7.12502
lthumb 13.9458 33.3897
rfemur -12.967 -6.6849 17.0076
rtibia 42.8847
rfoot -30.2226 -0.207763
rtoes -4.71215
lfemur -30.6713 8.68741 -9.05435
ltibia 40.2664
lfoot -3.74787 12.4826
ltoes -22.0779
1559
root -4.96144 17.1533 -4.89197 8.80442 6.48337 2.96462
lowerback 10.7983 -0.347856 -6.55249
upperback 1.16065 -1.14754 1.71565
thorax -4.67896 -0.427179 5.6807
lowerneck -22.5201 -7.29856 -11.089
upperneck 16.2816 -8.81388 10.8843
head 9.87285 -3.59645 4.28308
rclavicle 9.93923e-017 -7.95139e-016
rhumerus -13.2672 -4.49934 -78.1424
rradius 119.02
rwrist -19.0969
rhand -11.5225 26.4598
rfingers 7.12502
rthumb 14.5171 -3.01229
lclavicle 9.93923e-017 -7.95139e-016
lhumerus -4.07229 -11.4915 86.3049
lradius 126.959
lwrist -5.81086
lhand -11.5315 4.78535
lfingers 7.12502
lthumb 14.5084 34.2581
rfemur -12.575 -6.25373 16.6195
rtibia 42.7643
rfoot -30.4978 -0.375203
rtoes -4.23681
lfemur -30.0874 8.92316 -9.12555
ltibia 40.3416
lfoot -3.49535 11.1917
ltoes -24.098
1560
root -4.87175 17.1611 -4.91107 8.6156 6.243 2.86599
lowerback 10.6909 -0.413534 -6.22947
upperback 1.22449 -1.19205 1.639
thorax -4.55339 -0.462493 5.41656
lowerneck -22.5258 -7.16443 -10.7539
upperneck 16.5475 -8.71248 10.6738
head 9.92811 -3.54883 4.17346
rclavicle 2.00773e-014 7.95139e-015
rhumerus -13.3236 -4.08726 -78.7955
rradius 118.931
rwrist -18.2658
rhand -11.3224 26.5161
rfingers 7.12502
rthumb 14.7099 -2.94198
lclavicle 2.00773e-014 7.95139e-015
lhumerus -4.31631 -11.5446 86.2146
lradius 127.032
lwrist -5.94793
lhand -11.3252 5.18718
lfingers 7.12502
lthumb 14.7072 34.6455
rfemur -12.383 -6.00149 16.3885
rtibia 42.6532
rfoot -30.4176 -0.707165
rtoes -5.24273
lfemur -29.7092 9.04034 -9.10225
ltibia 40.5613
lfoot -3.6687 9.97053
ltoes -26.8221
1561
root -4.7699 17.1751 -4.92656 8.58313 6.22809 2.73297
lowerback 10.5123 -0.581109 -5.72704
upperback 1.17518 -1.34773 1.61712
thorax -4.4963 -0.549629 5.12395
lowerneck -22.6151 -7.0812 -10.647
upperneck 17.0286 -8.64994 10.6042
head 10.0987 -3.51347 4.14743
rclavicle 2.23633e-014 -1.66979e-014
rhumerus -13.7091 -3.57186 -79.2821
rradius 119.071
rwrist -17.7027
rhand -11.2168 26.63
rfingers 7.12502
rthumb 14.8117 -2.82065
lclavicle 2.23633e-014 -1.66979e-014
lhumerus -4.66892 -11.5865 86.2558
lradius 127.014
lwrist -6.0607
lhand -11.362 4.99382
lfingers 7.12502
lthumb 14.6717 34.4547
rfemur -12.4318 -6.02588 16.1601
rtibia 42.662
rfoot -29.8872 -0.831381
rtoes -6.01834
lfemur -29.4977 8.77704 -9.0779
ltibia 40.7192
lfoot -4.33831 8.81514
ltoes -28.9902
1562
root -4.66032 17.2007 -4.94027 8.56606 6.37633 2.65949
lowerback 10.3774 -0.819694 -5.1881
upperback 1.06577 -1.59758 1.61805
thorax -4.51836 -0.679696 4.84983
lowerneck -22.4986 -6.98956 -10.7273
upperneck 17.4193 -8.54554 10.6167
head 10.2094 -3.46989 4.19097
rclavicle -2.24627e-014 -6.36111e-015
rhumerus -14.6119 -2.96544 -79.616
rradius 119.404
rwrist -17.4647
rhand -11.0174 26.9659
rfingers 7.12502
rthumb 15.0038 -2.47057
lclavicle -2.24627e-014 -6.36111e-015
lhumerus -5.06259 -11.6256 86.4025
lradius 127.006
lwrist -5.89552
lhand -11.1778 4.99527
lfingers 7.12502
lthumb 14.8492 34.4432
rfemur -12.5629 -6.20132 15.8251
rtibia 42.8686
rfoot -29.0385 -0.700776
rtoes -5.59887
lfemur -29.3656 8.10205 -9.0864
ltibia 40.71
lfoot -4.8898 7.97264
ltoes -29.8343
1563
root -4.54509 17.2472 -4.94852 8.56639 6.54394 2.75243
lowerback 10.199 -1.03139 -4.73938
upperback 1.01504 -1.82288 1.56129
thorax -4.46061 -0.800633 4.55979
lowerneck -22.3984 -6.96813 -10.7357
upperneck 17.6232 -8.51895 10.5238
head 10.2565 -3.47031 4.16767
rclavicle 1.16289e-014 -1.74931e-014
rhumerus -15.5332 -2.47762 -79.9284
rradius 119.757
rwrist -17.2747
rhand -10.9129 27.3737
rfingers 7.12502
rthumb 15.1044 -2.05521
lclavicle 1.16289e-014 -1.74931e-014
lhumerus -5.20674 -11.8483 86.5464
lradius 126.88
lwrist -5.76341
lhand -11.242 4.95934
lfingers 7.12502
lthumb 14.7874 34.4118
rfemur -12.7855 -6.63514 15.2259
rtibia 43.338
rfoot -27.8814 -0.439646
rtoes -5.61681
lfemur -29.2245 7.23779 -9.26371
ltibia 40.4775
lfoot -4.78417 7.56712
ltoes -30.0453
